:FULLY-SPECIFIED
:FORCE-ALL-JOINTS-BE-3DOF
:DEGREES
918
root -0.208812 14.1228 -36.3517 372.265 -27.0419 343.483
lfemur -64.3482 31.5748 -0.449637
ltibia 69.8099 -0 0
lfoot -6.77573 -9.81782 0.00487344
ltoes -8.45434 0 0
rfemur 6.07333 -8.32755 13.2982
rtibia 38.43 -0 0
rfoot -22.3969 -28.4351 -0.000624868
rtoes -27.4778 0 0
lowerback 11.4395 0.0725354 6.52778
upperback -1.48379 1.41991 5.63686
thorax -8.03699 0.515546 2.08282
lowerneck -3.86063 7.688 2.61636
upperneck 4.14042 10.1396 -0.557218
head 2.12495 5.07953 -0.29487
lclavicle -1.62351e-14 6.15736e-14 0
lhumerus 13.0031 14.1729 73.6338
lradius 14.4793 0 0
lwrist -47.2958 0 0
lhand -28.4188 29.0387 0
lfingers 7.12502 0 0
lthumb -1.79035 59.011 0
rclavicle -1.62351e-14 6.15736e-14 0
rhumerus -76.6168 21.4747 -96.4115
rradius 109.981 0 0
rwrist -68.0728 0 0
rhand -10.8538 -24.5864 0
rfingers 7.12502 0 0
rthumb 15.1613 -54.011 0
919
root -0.201418 14.1112 -36.3476 372.258 -26.9245 343.408
lfemur -64.4513 31.6633 -0.492919
ltibia 69.9916 -0 0
lfoot -6.84487 -9.89941 0.00472574
ltoes -8.18693 0 0
rfemur 6.15453 -8.35065 13.2914
rtibia 38.4371 -0 0
rfoot -22.4228 -28.4063 -0.00068345
rtoes -27.5546 0 0
lowerback 11.4396 0.0291261 6.58995
upperback -1.48463 1.37589 5.71519
thorax -8.03989 0.492832 2.14067
lowerneck -3.90316 7.6932 2.64047
upperneck 4.22089 10.1469 -0.60875
head 2.16383 5.08225 -0.310377
lclavicle -3.60033e-14 -1.08835e-14 0
lhumerus 12.5466 12.2823 73.5953
lradius 14.8423 0 0
lwrist -45.328 0 0
lhand -27.9389 28.9648 0
lfingers 7.12502 0 0
lthumb -1.32691 58.9404 0
rclavicle -3.60033e-14 -1.08835e-14 0
rhumerus -76.648 21.4143 -96.333
rradius 109.997 0 0
rwrist -67.8351 0 0
rhand -10.8964 -24.6639 0
rfingers 7.12502 0 0
rthumb 15.1203 -54.0916 0
920
root -0.194865 14.1033 -36.3351 372.213 -26.9933 343.373
lfemur -64.5545 31.7518 -0.536429
ltibia 70.1734 -0 0
lfoot -6.91402 -9.981 0.00447959
ltoes -7.91952 0 0
rfemur 6.23575 -8.37374 13.2846
rtibia 38.4442 -0 0
rfoot -22.4487 -28.3775 -0.000729014
rtoes -27.6314 0 0
lowerback 11.3876 0.0268509 6.61333
upperback -1.45583 1.37065 5.76385
thorax -7.97982 0.491457 2.17994
lowerneck -3.90984 7.72345 2.65339
upperneck 4.29391 10.1892 -0.65779
head 2.19367 5.10238 -0.323813
lclavicle 2.65948e-14 2.514e-14 0
lhumerus 12.0408 10.1115 73.4608
lradius 15.2261 0 0
lwrist -43.3233 0 0
lhand -27.6805 28.6495 0
lfingers 7.12502 0 0
lthumb -1.07733 58.6265 0
rclavicle 2.65948e-14 2.514e-14 0
rhumerus -76.6042 21.4025 -96.2698
rradius 109.915 0 0
rwrist -67.5855 0 0
rhand -10.8893 -24.7827 0
rfingers 7.12502 0 0
rthumb 15.1272 -54.2098 0
921
root -0.187022 14.0946 -36.3212 372.222 -26.9796 343.346
lfemur -64.658 31.8402 -0.580168
ltibia 70.3552 -0 0
lfoot -6.98316 -10.0626 0.00413498
ltoes -7.65211 0 0
rfemur 6.31697 -8.39683 13.2778
rtibia 38.4513 -0 0
rfoot -22.4746 -28.3487 -0.00076156
rtoes -27.7082 0 0
lowerback 11.2822 -0.00685124 6.67039
upperback -1.45189 1.32459 5.8152
thorax -7.91592 0.468645 2.21092
lowerneck -3.90288 7.74249 2.7256
upperneck 4.35596 10.2174 -0.782302
head 2.22542 5.11452 -0.371312
lclavicle 6.07908e-14 -2.25496e-14 0
lhumerus 11.4558 7.58907 73.2673
lradius 15.7569 0 0
lwrist -40.9986 0 0
lhand -27.3852 28.2548 0
lfingers 7.12502 0 0
lthumb -0.79209 58.233 0
rclavicle 6.07908e-14 -2.25496e-14 0
rhumerus -76.6377 21.4195 -96.2195
rradius 109.903 0 0
rwrist -67.4224 0 0
rhand -10.8302 -24.7497 0
rfingers 7.12502 0 0
rthumb 15.1841 -54.1726 0
922
root -0.178876 14.085 -36.3119 372.251 -26.9615 343.292
lfemur -64.7616 31.9285 -0.624137
ltibia 70.5369 -0 0
lfoot -7.0523 -10.1442 0.00369192
ltoes -7.3847 0 0
rfemur 6.39819 -8.4199 13.2709
rtibia 38.4583 -0 0
rfoot -22.5005 -28.3199 -0.000781088
rtoes -27.785 0 0
lowerback 11.2363 -0.0250223 6.72991
upperback -1.46077 1.30766 5.87112
thorax -7.90006 0.458982 2.24094
lowerneck -3.93502 7.76433 2.79797
upperneck 4.43262 10.2461 -0.863506
head 2.26655 5.12786 -0.403477
lclavicle 2.54755e-14 -1.10325e-14 0
lhumerus 10.9638 4.91703 73.1366
lradius 16.2798 0 0
lwrist -38.5383 0 0
lhand -26.9311 28.2853 0
lfingers 7.12502 0 0
lthumb -0.353496 58.2647 0
rclavicle 2.54755e-14 -1.10325e-14 0
rhumerus -76.6419 21.3693 -96.1512
rradius 109.876 0 0
rwrist -67.3003 0 0
rhand -10.6541 -24.832 0
rfingers 7.12502 0 0
rthumb 15.3536 -54.242 0
923
root -0.168391 14.0753 -36.3003 372.16 -26.8373 343.304
lfemur -64.8654 32.0168 -0.668336
ltibia 70.7187 -0 0
lfoot -7.12143 -10.2258 0.00315041
ltoes -7.11729 0 0
rfemur 6.47943 -8.44297 13.264
rtibia 38.4654 -0 0
rfoot -22.5263 -28.2911 -0.000787597
rtoes -27.8619 0 0
lowerback 11.2408 -0.115182 6.80145
upperback -1.45121 1.20014 5.92606
thorax -7.89393 0.404703 2.27944
lowerneck -3.88537 7.80382 2.82784
upperneck 4.47592 10.3031 -0.941999
head 2.27979 5.1549 -0.43136
lclavicle -2.03847e-14 -9.03476e-14 0
lhumerus 10.4442 2.30345 73.0694
lradius 16.8484 0 0
lwrist -35.9057 0 0
lhand -26.7121 27.9781 0
lfingers 7.12502 0 0
lthumb -0.14201 57.9578 0
rclavicle -2.03847e-14 -9.03476e-14 0
rhumerus -76.7324 21.4029 -96.1127
rradius 109.902 0 0
rwrist -67.3266 0 0
rhand -10.697 -24.7726 0
rfingers 7.12502 0 0
rthumb 15.3124 -54.1857 0
924
root -0.159253 14.0667 -36.2883 372.157 -26.7705 343.261
lfemur -64.9693 32.1049 -0.712767
ltibia 70.9004 -0 0
lfoot -7.19057 -10.3074 0.00251045
ltoes -6.84988 0 0
rfemur 6.56067 -8.46602 13.257
rtibia 38.4725 -0 0
rfoot -22.5522 -28.2622 -0.000781088
rtoes -27.9387 0 0
lowerback 11.2199 -0.161175 6.87532
upperback -1.46727 1.15264 6.00056
thorax -7.90094 0.379414 2.32747
lowerneck -3.86097 7.81912 2.8566
upperneck 4.53031 10.3274 -1.02445
head 2.30088 5.16551 -0.460181
lclavicle -2.55563e-14 2.72335e-14 0
lhumerus 9.97643 -0.317625 73.1459
lradius 17.4155 0 0
lwrist -33.2006 0 0
lhand -26.5525 27.8343 0
lfingers 7.12502 0 0
lthumb 0.0120993 57.8141 0
rclavicle -2.55563e-14 2.72335e-14 0
rhumerus -76.7925 21.4024 -96.0518
rradius 109.896 0 0
rwrist -67.4446 0 0
rhand -10.8348 -24.8267 0
rfingers 7.12502 0 0
rthumb 15.1796 -54.2499 0
925
root -0.150218 14.0582 -36.2789 372.159 -26.7707 343.206
lfemur -65.0735 32.1931 -0.757428
ltibia 71.0822 -0 0
lfoot -7.25971 -10.3889 0.00177206
ltoes -6.58247 0 0
rfemur 6.59024 -8.5057 13.1861
rtibia 38.4796 -0 0
rfoot -22.5781 -28.2334 -0.00076156
rtoes -28.0155 0 0
lowerback 11.2078 -0.169842 6.93913
upperback -1.46556 1.1518 6.05903
thorax -7.89293 0.377348 2.35501
lowerneck -3.87389 7.83276 2.88405
upperneck 4.60076 10.3451 -1.04299
head 2.32985 5.1743 -0.467298
lclavicle -1.22253e-14 -6.55989e-15 0
lhumerus 9.68028 -2.6626 73.398
lradius 17.8277 0 0
lwrist -30.6517 0 0
lhand -25.6323 28.2512 0
lfingers 7.12502 0 0
lthumb 0.90086 58.229 0
rclavicle -1.22253e-14 -6.55989e-15 0
rhumerus -76.8186 21.3138 -95.993
rradius 109.868 0 0
rwrist -67.6076 0 0
rhand -10.7499 -24.7678 0
rfingers 7.12502 0 0
rthumb 15.2614 -54.1848 0
926
root -0.141285 14.0502 -36.2676 372.127 -26.7991 343.152
lfemur -65.1778 32.2811 -0.802322
ltibia 71.2639 -0 0
lfoot -7.32884 -10.4705 0.000935241
ltoes -6.31506 0 0
rfemur 6.61986 -8.54534 13.1152
rtibia 38.4867 -0 0
rfoot -22.604 -28.2046 -0.000729014
rtoes -28.0923 0 0
lowerback 11.2233 -0.200991 6.96009
upperback -1.45622 1.1192 6.14513
thorax -7.89423 0.362198 2.44215
lowerneck -3.84473 7.86387 2.88507
upperneck 4.65982 10.3903 -1.0852
head 2.34792 5.19586 -0.478554
lclavicle -2.18042e-14 1.17283e-14 0
lhumerus 9.2746 -5.39596 73.5474
lradius 18.4177 0 0
lwrist -27.6199 0 0
lhand -24.9941 28.2752 0
lfingers 7.12502 0 0
lthumb 1.51725 58.2495 0
rclavicle -2.18042e-14 1.17283e-14 0
rhumerus -76.8516 21.353 -95.9639
rradius 109.818 0 0
rwrist -67.8241 0 0
rhand -10.8283 -24.8682 0
rfingers 7.12502 0 0
rthumb 15.1859 -54.2909 0
927
root -0.132334 14.0415 -36.255 372.135 -26.8682 343.077
lfemur -65.2823 32.3691 -0.847448
ltibia 71.4457 -0 0
lfoot -7.39797 -10.5521 0
ltoes -6.04766 0 0
rfemur 6.64954 -8.58495 13.0442
rtibia 38.4938 -0 0
rfoot -22.6299 -28.1758 -0.00068345
rtoes -28.1691 0 0
lowerback 11.1883 -0.189746 7.01235
upperback -1.43867 1.13985 6.2185
thorax -7.85619 0.372021 2.48765
lowerneck -3.84004 7.86565 2.90813
upperneck 4.71568 10.3938 -1.1195
head 2.36936 5.19714 -0.491537
lclavicle 5.94739e-14 4.41302e-14 0
lhumerus 8.84914 -8.26845 73.7552
lradius 19.2195 0 0
lwrist -24.6125 0 0
lhand -24.4544 28.5187 0
lfingers 7.12502 0 0
lthumb 2.03851 58.4887 0
rclavicle 5.94739e-14 4.41302e-14 0
rhumerus -76.9128 21.3309 -95.9326
rradius 109.797 0 0
rwrist -67.9415 0 0
rhand -10.8068 -24.8937 0
rfingers 7.12502 0 0
rthumb 15.2066 -54.3149 0
